<?xml version="1.0" encoding="UTF-8"?>
<svg xmlns="http://www.w3.org/2000/svg" 
     width="560" height="240" 
     viewBox="0 0 560 240">

  <!-- Arrow marker definitions -->
  <defs>
    <marker id="arrow0" markerWidth="8" markerHeight="8" 
            refX="8" refY="4" orient="auto" markerUnits="userSpaceOnUse">
      <polygon points="0 0, 8 4, 0 8" fill="#666666"/>
    </marker>
  </defs>

  <!-- Background -->
  <rect width="100%" height="100%" fill="white"/>

  <!-- Edges (rendered first, under nodes) -->
  <g id="edges">
    <line x1="280" y1="40" x2="60" y2="80" 
          stroke="#666666" stroke-width="2" 
          marker-end="url(#arrow0)"/>
    <line x1="280" y1="40" x2="170" y2="80" 
          stroke="#666666" stroke-width="2" 
          marker-end="url(#arrow0)"/>
    <line x1="280" y1="40" x2="280" y2="80" 
          stroke="#666666" stroke-width="2" 
          marker-end="url(#arrow0)"/>
    <line x1="280" y1="40" x2="390" y2="80" 
          stroke="#666666" stroke-width="2" 
          marker-end="url(#arrow0)"/>
    <line x1="280" y1="40" x2="500" y2="80" 
          stroke="#666666" stroke-width="2" 
          marker-end="url(#arrow0)"/>
    <line x1="170" y1="100" x2="300" y2="140" 
          stroke="#666666" stroke-width="2" 
          marker-end="url(#arrow0)"/>
    <line x1="280" y1="100" x2="300" y2="140" 
          stroke="#666666" stroke-width="2" 
          marker-end="url(#arrow0)"/>
    <line x1="390" y1="100" x2="300" y2="140" 
          stroke="#666666" stroke-width="2" 
          marker-end="url(#arrow0)"/>
    <line x1="500" y1="100" x2="300" y2="140" 
          stroke="#666666" stroke-width="2" 
          marker-end="url(#arrow0)"/>
    <path d="M 60 100 C 87 107, 183 123, 220 140 C 257 157, 270 190, 280 200" fill="none" stroke="#666666" stroke-width="2" 
          marker-end="url(#arrow0)"/>
    <line x1="300" y1="160" x2="280" y2="200" 
          stroke="#666666" stroke-width="2" 
          marker-end="url(#arrow0)"/>
  </g>

  <!-- Nodes -->
  <g id="nodes">
    <rect x="250" y="20" width="60" height="20" 
          rx="4" ry="4" 
          fill="#f0f0f0" stroke="#333333" stroke-width="1"/>
    <text x="280" y="34" 
          font-family="monospace" font-size="12" 
          text-anchor="middle" fill="#333333">Root</text>
    <rect x="20" y="80" width="80" height="20" 
          rx="4" ry="4" 
          fill="#f0f0f0" stroke="#333333" stroke-width="1"/>
    <text x="60" y="94" 
          font-family="monospace" font-size="12" 
          text-anchor="middle" fill="#333333">Task E</text>
    <rect x="130" y="80" width="80" height="20" 
          rx="4" ry="4" 
          fill="#f0f0f0" stroke="#333333" stroke-width="1"/>
    <text x="170" y="94" 
          font-family="monospace" font-size="12" 
          text-anchor="middle" fill="#333333">Task A</text>
    <rect x="240" y="80" width="80" height="20" 
          rx="4" ry="4" 
          fill="#f0f0f0" stroke="#333333" stroke-width="1"/>
    <text x="280" y="94" 
          font-family="monospace" font-size="12" 
          text-anchor="middle" fill="#333333">Task B</text>
    <rect x="350" y="80" width="80" height="20" 
          rx="4" ry="4" 
          fill="#f0f0f0" stroke="#333333" stroke-width="1"/>
    <text x="390" y="94" 
          font-family="monospace" font-size="12" 
          text-anchor="middle" fill="#333333">Task C</text>
    <rect x="460" y="80" width="80" height="20" 
          rx="4" ry="4" 
          fill="#f0f0f0" stroke="#333333" stroke-width="1"/>
    <text x="500" y="94" 
          font-family="monospace" font-size="12" 
          text-anchor="middle" fill="#333333">Task D</text>
    <rect x="260" y="140" width="80" height="20" 
          rx="4" ry="4" 
          fill="#f0f0f0" stroke="#333333" stroke-width="1"/>
    <text x="300" y="154" 
          font-family="monospace" font-size="12" 
          text-anchor="middle" fill="#333333">Task F</text>
    <rect x="240" y="200" width="80" height="20" 
          rx="4" ry="4" 
          fill="#f0f0f0" stroke="#333333" stroke-width="1"/>
    <text x="280" y="214" 
          font-family="monospace" font-size="12" 
          text-anchor="middle" fill="#333333">Output</text>
  </g>

</svg>
