<?xml version="1.0" encoding="UTF-8"?>
<svg xmlns="http://www.w3.org/2000/svg" 
     width="650" height="600" 
     viewBox="0 0 650 600">

  <!-- Arrow marker definitions -->
  <defs>
    <marker id="arrow0" markerWidth="8" markerHeight="8" 
            refX="8" refY="4" orient="auto" markerUnits="userSpaceOnUse">
      <polygon points="0 0, 8 4, 0 8" fill="#666666"/>
    </marker>
  </defs>

  <!-- Background -->
  <rect width="100%" height="100%" fill="white"/>

  <!-- Edges (rendered first, under nodes) -->
  <g id="edges">
    <line x1="220" y1="40" x2="60" y2="200" 
          stroke="#666666" stroke-width="2" 
          marker-end="url(#arrow0)"/>
    <line x1="220" y1="40" x2="190" y2="200" 
          stroke="#666666" stroke-width="2" 
          marker-end="url(#arrow0)"/>
    <line x1="220" y1="40" x2="300" y2="200" 
          stroke="#666666" stroke-width="2" 
          marker-end="url(#arrow0)"/>
    <line x1="220" y1="40" x2="410" y2="200" 
          stroke="#666666" stroke-width="2" 
          marker-end="url(#arrow0)"/>
    <line x1="220" y1="40" x2="520" y2="200" 
          stroke="#666666" stroke-width="2" 
          marker-end="url(#arrow0)"/>
    <line x1="190" y1="220" x2="210" y2="380" 
          stroke="#666666" stroke-width="2" 
          marker-end="url(#arrow0)"/>
    <line x1="300" y1="220" x2="210" y2="380" 
          stroke="#666666" stroke-width="2" 
          marker-end="url(#arrow0)"/>
    <line x1="410" y1="220" x2="210" y2="380" 
          stroke="#666666" stroke-width="2" 
          marker-end="url(#arrow0)"/>
    <line x1="520" y1="220" x2="210" y2="380" 
          stroke="#666666" stroke-width="2" 
          marker-end="url(#arrow0)"/>
    <path d="M 60 220 C 63 247, 58 323, 80 380 C 102 437, 172 530, 190 560" fill="none" stroke="#666666" stroke-width="2" 
          marker-end="url(#arrow0)"/>
    <line x1="210" y1="400" x2="190" y2="560" 
          stroke="#666666" stroke-width="2" 
          marker-end="url(#arrow0)"/>
    <path d="M 190 560 C 205 530, 213 440, 280 380 C 347 320, 600 257, 590 200 C 580 143, 282 67, 220 40" fill="none" stroke="#666666" stroke-width="2" stroke-dasharray="6,3" 
          marker-end="url(#arrow0)"/>
    <text x="542" y="239" font-family="monospace" font-size="12"
          fill="#666666" text-anchor="middle" dy="-6" dominant-baseline="auto">"retry"</text>
  </g>

  <!-- Nodes -->
  <g id="nodes">
    <rect x="190" y="20" width="60" height="20" 
          rx="4" ry="4" 
          fill="#f0f0f0" stroke="#333333" stroke-width="1"/>
    <text x="220" y="34" 
          font-family="monospace" font-size="12" 
          text-anchor="middle" fill="#333333">Root</text>
    <rect x="20" y="200" width="80" height="20" 
          rx="4" ry="4" 
          fill="#f0f0f0" stroke="#333333" stroke-width="1"/>
    <text x="60" y="214" 
          font-family="monospace" font-size="12" 
          text-anchor="middle" fill="#333333">Task E</text>
    <rect x="150" y="200" width="80" height="20" 
          rx="4" ry="4" 
          fill="#f0f0f0" stroke="#333333" stroke-width="1"/>
    <text x="190" y="214" 
          font-family="monospace" font-size="12" 
          text-anchor="middle" fill="#333333">Task A</text>
    <rect x="260" y="200" width="80" height="20" 
          rx="4" ry="4" 
          fill="#f0f0f0" stroke="#333333" stroke-width="1"/>
    <text x="300" y="214" 
          font-family="monospace" font-size="12" 
          text-anchor="middle" fill="#333333">Task B</text>
    <rect x="370" y="200" width="80" height="20" 
          rx="4" ry="4" 
          fill="#f0f0f0" stroke="#333333" stroke-width="1"/>
    <text x="410" y="214" 
          font-family="monospace" font-size="12" 
          text-anchor="middle" fill="#333333">Task C</text>
    <rect x="480" y="200" width="80" height="20" 
          rx="4" ry="4" 
          fill="#f0f0f0" stroke="#333333" stroke-width="1"/>
    <text x="520" y="214" 
          font-family="monospace" font-size="12" 
          text-anchor="middle" fill="#333333">Task D</text>
    <rect x="170" y="380" width="80" height="20" 
          rx="4" ry="4" 
          fill="#f0f0f0" stroke="#333333" stroke-width="1"/>
    <text x="210" y="394" 
          font-family="monospace" font-size="12" 
          text-anchor="middle" fill="#333333">Task F</text>
    <rect x="150" y="560" width="80" height="20" 
          rx="4" ry="4" 
          fill="#f0f0f0" stroke="#333333" stroke-width="1"/>
    <text x="190" y="574" 
          font-family="monospace" font-size="12" 
          text-anchor="middle" fill="#333333">Output</text>
  </g>

</svg>
