<?xml version="1.0" encoding="UTF-8"?>
<svg xmlns="http://www.w3.org/2000/svg" 
     width="700" height="600" 
     viewBox="0 0 700 600">

  <!-- Arrow marker definitions -->
  <defs>
    <marker id="arrow0" markerWidth="8" markerHeight="8" 
            refX="8" refY="4" orient="auto" markerUnits="userSpaceOnUse">
      <polygon points="0 0, 8 4, 0 8" fill="#666666"/>
    </marker>
  </defs>

  <!-- Background -->
  <rect width="100%" height="100%" fill="white"/>

  <!-- Edges (rendered first, under nodes) -->
  <g id="edges">
    <path d="M 230 40 L 230 60 L 60 200" 
          fill="none" stroke="#666666" stroke-width="2" marker-end="url(#arrowhead)"/>
    <text x="145" y="120" font-family="monospace" font-size="12"
          fill="#666666" text-anchor="middle" dy="-6" dominant-baseline="auto">"spawn"</text>
    <path d="M 230 40 L 230 80 L 200 200" 
          fill="none" stroke="#666666" stroke-width="2" marker-end="url(#arrowhead)"/>
    <path d="M 230 40 L 230 100 L 320 200" 
          fill="none" stroke="#666666" stroke-width="2" marker-end="url(#arrowhead)"/>
    <path d="M 230 40 L 230 120 L 440 200" 
          fill="none" stroke="#666666" stroke-width="2" marker-end="url(#arrowhead)"/>
    <path d="M 230 40 L 230 140 L 560 200" 
          fill="none" stroke="#666666" stroke-width="2" marker-end="url(#arrowhead)"/>
    <path d="M 200 220 L 200 240 L 230 380" 
          fill="none" stroke="#666666" stroke-width="2" marker-end="url(#arrowhead)"/>
    <path d="M 320 220 L 320 260 L 230 380" 
          fill="none" stroke="#666666" stroke-width="2" marker-end="url(#arrowhead)"/>
    <path d="M 440 220 L 440 280 L 230 380" 
          fill="none" stroke="#666666" stroke-width="2" marker-end="url(#arrowhead)"/>
    <path d="M 560 220 L 560 300 L 230 380" 
          fill="none" stroke="#666666" stroke-width="2" marker-end="url(#arrowhead)"/>
    <path d="M 60 220 L 60 320 L 90 380" 
          fill="none" stroke="#666666" stroke-width="2"/>
    <text x="75" y="300" font-family="monospace" font-size="12"
          fill="#666666" text-anchor="middle" dy="-6" dominant-baseline="auto">"skip"</text>
    <path d="M 90 400 L 90 420 L 200 560" 
          fill="none" stroke="#666666" stroke-width="2" marker-end="url(#arrowhead)"/>
    <path d="M 230 400 L 230 440 L 200 560" 
          fill="none" stroke="#666666" stroke-width="2" marker-end="url(#arrowhead)"/>
    <text x="215" y="480" font-family="monospace" font-size="12"
          fill="#666666" text-anchor="middle" dy="-6" dominant-baseline="auto">"merge"</text>
    <path d="M 640 200 L 640 160 L 230 40" 
          fill="none" stroke="#666666" stroke-width="2" stroke-dasharray="6,3" marker-end="url(#arrowhead)"/>
    <text x="435" y="120" font-family="monospace" font-size="12"
          fill="#666666" text-anchor="middle" dy="-6" dominant-baseline="auto">"retry"</text>
    <path d="M 310 380 L 310 340 L 640 220" 
          fill="none" stroke="#666666" stroke-width="2" stroke-dasharray="6,3"/>
    <path d="M 200 560 L 200 460 L 310 400" 
          fill="none" stroke="#666666" stroke-width="2" stroke-dasharray="6,3"/>
  </g>

  <!-- Nodes -->
  <g id="nodes">
    <rect x="200" y="20" width="60" height="20" 
          rx="4" ry="4" 
          fill="#f0f0f0" stroke="#333333" stroke-width="1"/>
    <text x="230" y="34" 
          font-family="monospace" font-size="12" 
          text-anchor="middle" fill="#333333">Root</text>
    <rect x="20" y="200" width="80" height="20" 
          rx="4" ry="4" 
          fill="#f0f0f0" stroke="#333333" stroke-width="1"/>
    <text x="60" y="214" 
          font-family="monospace" font-size="12" 
          text-anchor="middle" fill="#333333">Task E</text>
    <rect x="160" y="200" width="80" height="20" 
          rx="4" ry="4" 
          fill="#f0f0f0" stroke="#333333" stroke-width="1"/>
    <text x="200" y="214" 
          font-family="monospace" font-size="12" 
          text-anchor="middle" fill="#333333">Task A</text>
    <rect x="280" y="200" width="80" height="20" 
          rx="4" ry="4" 
          fill="#f0f0f0" stroke="#333333" stroke-width="1"/>
    <text x="320" y="214" 
          font-family="monospace" font-size="12" 
          text-anchor="middle" fill="#333333">Task B</text>
    <rect x="400" y="200" width="80" height="20" 
          rx="4" ry="4" 
          fill="#f0f0f0" stroke="#333333" stroke-width="1"/>
    <text x="440" y="214" 
          font-family="monospace" font-size="12" 
          text-anchor="middle" fill="#333333">Task C</text>
    <rect x="520" y="200" width="80" height="20" 
          rx="4" ry="4" 
          fill="#f0f0f0" stroke="#333333" stroke-width="1"/>
    <text x="560" y="214" 
          font-family="monospace" font-size="12" 
          text-anchor="middle" fill="#333333">Task D</text>
    <rect x="190" y="380" width="80" height="20" 
          rx="4" ry="4" 
          fill="#f0f0f0" stroke="#333333" stroke-width="1"/>
    <text x="230" y="394" 
          font-family="monospace" font-size="12" 
          text-anchor="middle" fill="#333333">Task F</text>
    <rect x="160" y="560" width="80" height="20" 
          rx="4" ry="4" 
          fill="#f0f0f0" stroke="#333333" stroke-width="1"/>
    <text x="200" y="574" 
          font-family="monospace" font-size="12" 
          text-anchor="middle" fill="#333333">Output</text>
    <circle cx="645" cy="210" r="4" 
            fill="#ff6600" stroke="#cc4400" stroke-width="1"/>
    <circle cx="95" cy="390" r="4" 
            fill="#ff6600" stroke="#cc4400" stroke-width="1"/>
    <circle cx="315" cy="390" r="4" 
            fill="#ff6600" stroke="#cc4400" stroke-width="1"/>
  </g>

</svg>
