<?xml version="1.0" encoding="UTF-8"?>
<svg xmlns="http://www.w3.org/2000/svg" 
     width="650" height="600" 
     viewBox="0 0 650 600">

  <!-- Arrow marker definitions -->
  <defs>
    <marker id="arrow0" markerWidth="8" markerHeight="8" 
            refX="8" refY="4" orient="auto" markerUnits="userSpaceOnUse">
      <polygon points="0 0, 8 4, 0 8" fill="#666666"/>
    </marker>
  </defs>

  <!-- Background -->
  <rect width="100%" height="100%" fill="white"/>

  <!-- Edges (rendered first, under nodes) -->
  <g id="edges">
    <path d="M 220 40 L 220 60 L 60 200" 
          fill="none" stroke="#666666" stroke-width="2" marker-end="url(#arrowhead)"/>
    <path d="M 220 40 L 220 80 L 190 200" 
          fill="none" stroke="#666666" stroke-width="2" marker-end="url(#arrowhead)"/>
    <path d="M 220 40 L 220 100 L 300 200" 
          fill="none" stroke="#666666" stroke-width="2" marker-end="url(#arrowhead)"/>
    <path d="M 220 40 L 220 120 L 410 200" 
          fill="none" stroke="#666666" stroke-width="2" marker-end="url(#arrowhead)"/>
    <path d="M 220 40 L 220 140 L 520 200" 
          fill="none" stroke="#666666" stroke-width="2" marker-end="url(#arrowhead)"/>
    <path d="M 190 220 L 190 240 L 210 380" 
          fill="none" stroke="#666666" stroke-width="2" marker-end="url(#arrowhead)"/>
    <path d="M 300 220 L 300 260 L 210 380" 
          fill="none" stroke="#666666" stroke-width="2" marker-end="url(#arrowhead)"/>
    <path d="M 410 220 L 410 280 L 210 380" 
          fill="none" stroke="#666666" stroke-width="2" marker-end="url(#arrowhead)"/>
    <path d="M 520 220 L 520 300 L 210 380" 
          fill="none" stroke="#666666" stroke-width="2" marker-end="url(#arrowhead)"/>
    <path d="M 60 220 L 60 320 L 80 380" 
          fill="none" stroke="#666666" stroke-width="2"/>
    <path d="M 80 400 L 80 420 L 190 560" 
          fill="none" stroke="#666666" stroke-width="2" marker-end="url(#arrowhead)"/>
    <path d="M 210 400 L 210 440 L 190 560" 
          fill="none" stroke="#666666" stroke-width="2" marker-end="url(#arrowhead)"/>
    <path d="M 590 200 L 590 160 L 220 40" 
          fill="none" stroke="#666666" stroke-width="2" stroke-dasharray="6,3" marker-end="url(#arrowhead)"/>
    <text x="405" y="120" font-family="monospace" font-size="12"
          fill="#666666" text-anchor="middle" dy="-6" dominant-baseline="auto">"retry"</text>
    <path d="M 280 380 L 280 340 L 590 220" 
          fill="none" stroke="#666666" stroke-width="2" stroke-dasharray="6,3"/>
    <path d="M 190 560 L 190 460 L 280 400" 
          fill="none" stroke="#666666" stroke-width="2" stroke-dasharray="6,3"/>
  </g>

  <!-- Nodes -->
  <g id="nodes">
    <rect x="190" y="20" width="60" height="20" 
          rx="4" ry="4" 
          fill="#f0f0f0" stroke="#333333" stroke-width="1"/>
    <text x="220" y="34" 
          font-family="monospace" font-size="12" 
          text-anchor="middle" fill="#333333">Root</text>
    <rect x="20" y="200" width="80" height="20" 
          rx="4" ry="4" 
          fill="#f0f0f0" stroke="#333333" stroke-width="1"/>
    <text x="60" y="214" 
          font-family="monospace" font-size="12" 
          text-anchor="middle" fill="#333333">Task E</text>
    <rect x="150" y="200" width="80" height="20" 
          rx="4" ry="4" 
          fill="#f0f0f0" stroke="#333333" stroke-width="1"/>
    <text x="190" y="214" 
          font-family="monospace" font-size="12" 
          text-anchor="middle" fill="#333333">Task A</text>
    <rect x="260" y="200" width="80" height="20" 
          rx="4" ry="4" 
          fill="#f0f0f0" stroke="#333333" stroke-width="1"/>
    <text x="300" y="214" 
          font-family="monospace" font-size="12" 
          text-anchor="middle" fill="#333333">Task B</text>
    <rect x="370" y="200" width="80" height="20" 
          rx="4" ry="4" 
          fill="#f0f0f0" stroke="#333333" stroke-width="1"/>
    <text x="410" y="214" 
          font-family="monospace" font-size="12" 
          text-anchor="middle" fill="#333333">Task C</text>
    <rect x="480" y="200" width="80" height="20" 
          rx="4" ry="4" 
          fill="#f0f0f0" stroke="#333333" stroke-width="1"/>
    <text x="520" y="214" 
          font-family="monospace" font-size="12" 
          text-anchor="middle" fill="#333333">Task D</text>
    <rect x="170" y="380" width="80" height="20" 
          rx="4" ry="4" 
          fill="#f0f0f0" stroke="#333333" stroke-width="1"/>
    <text x="210" y="394" 
          font-family="monospace" font-size="12" 
          text-anchor="middle" fill="#333333">Task F</text>
    <rect x="150" y="560" width="80" height="20" 
          rx="4" ry="4" 
          fill="#f0f0f0" stroke="#333333" stroke-width="1"/>
    <text x="190" y="574" 
          font-family="monospace" font-size="12" 
          text-anchor="middle" fill="#333333">Output</text>
    <circle cx="595" cy="210" r="4" 
            fill="#ff6600" stroke="#cc4400" stroke-width="1"/>
    <circle cx="85" cy="390" r="4" 
            fill="#ff6600" stroke="#cc4400" stroke-width="1"/>
    <circle cx="285" cy="390" r="4" 
            fill="#ff6600" stroke="#cc4400" stroke-width="1"/>
  </g>

</svg>
