<?xml version="1.0" encoding="UTF-8"?>
<svg xmlns="http://www.w3.org/2000/svg" 
     width="560" height="240" 
     viewBox="0 0 560 240">

  <!-- Arrow marker definitions -->
  <defs>
    <marker id="arrow0" markerWidth="8" markerHeight="8" 
            refX="8" refY="4" orient="auto" markerUnits="userSpaceOnUse">
      <polygon points="0 0, 8 4, 0 8" fill="#666666"/>
    </marker>
  </defs>

  <!-- Background -->
  <rect width="100%" height="100%" fill="white"/>

  <!-- Edges (rendered first, under nodes) -->
  <g id="edges">
    <path d="M 280 40 L 280 60 L 60 80" 
          fill="none" stroke="#666666" stroke-width="2" 
          marker-end="url(#arrowhead)"/>
    <path d="M 280 40 L 280 60 L 170 80" 
          fill="none" stroke="#666666" stroke-width="2" 
          marker-end="url(#arrowhead)"/>
    <line x1="280" y1="40" x2="280" y2="80" 
          stroke="#666666" stroke-width="2" 
          marker-end="url(#arrowhead)"/>
    <path d="M 280 40 L 280 60 L 390 80" 
          fill="none" stroke="#666666" stroke-width="2" 
          marker-end="url(#arrowhead)"/>
    <path d="M 280 40 L 280 60 L 500 80" 
          fill="none" stroke="#666666" stroke-width="2" 
          marker-end="url(#arrowhead)"/>
    <path d="M 170 100 L 170 120 L 300 140" 
          fill="none" stroke="#666666" stroke-width="2" 
          marker-end="url(#arrowhead)"/>
    <path d="M 280 100 L 280 120 L 300 140" 
          fill="none" stroke="#666666" stroke-width="2" 
          marker-end="url(#arrowhead)"/>
    <path d="M 390 100 L 390 120 L 300 140" 
          fill="none" stroke="#666666" stroke-width="2" 
          marker-end="url(#arrowhead)"/>
    <path d="M 500 100 L 500 120 L 300 140" 
          fill="none" stroke="#666666" stroke-width="2" 
          marker-end="url(#arrowhead)"/>
    <path d="M 60 100 L 60 120 L 220 140" 
          fill="none" stroke="#666666" stroke-width="2" 
          marker-end="url(#arrowhead)"/>
    <path d="M 220 160 L 220 180 L 280 200" 
          fill="none" stroke="#666666" stroke-width="2" 
          marker-end="url(#arrowhead)"/>
    <path d="M 300 160 L 300 180 L 280 200" 
          fill="none" stroke="#666666" stroke-width="2" 
          marker-end="url(#arrowhead)"/>
  </g>

  <!-- Nodes -->
  <g id="nodes">
    <rect x="250" y="20" width="60" height="20" 
          rx="4" ry="4" 
          fill="#f0f0f0" stroke="#333333" stroke-width="1"/>
    <text x="280" y="34" 
          font-family="monospace" font-size="12" 
          text-anchor="middle" fill="#333333">Root</text>
    <rect x="20" y="80" width="80" height="20" 
          rx="4" ry="4" 
          fill="#f0f0f0" stroke="#333333" stroke-width="1"/>
    <text x="60" y="94" 
          font-family="monospace" font-size="12" 
          text-anchor="middle" fill="#333333">Task E</text>
    <rect x="130" y="80" width="80" height="20" 
          rx="4" ry="4" 
          fill="#f0f0f0" stroke="#333333" stroke-width="1"/>
    <text x="170" y="94" 
          font-family="monospace" font-size="12" 
          text-anchor="middle" fill="#333333">Task A</text>
    <rect x="240" y="80" width="80" height="20" 
          rx="4" ry="4" 
          fill="#f0f0f0" stroke="#333333" stroke-width="1"/>
    <text x="280" y="94" 
          font-family="monospace" font-size="12" 
          text-anchor="middle" fill="#333333">Task B</text>
    <rect x="350" y="80" width="80" height="20" 
          rx="4" ry="4" 
          fill="#f0f0f0" stroke="#333333" stroke-width="1"/>
    <text x="390" y="94" 
          font-family="monospace" font-size="12" 
          text-anchor="middle" fill="#333333">Task C</text>
    <rect x="460" y="80" width="80" height="20" 
          rx="4" ry="4" 
          fill="#f0f0f0" stroke="#333333" stroke-width="1"/>
    <text x="500" y="94" 
          font-family="monospace" font-size="12" 
          text-anchor="middle" fill="#333333">Task D</text>
    <rect x="260" y="140" width="80" height="20" 
          rx="4" ry="4" 
          fill="#f0f0f0" stroke="#333333" stroke-width="1"/>
    <text x="300" y="154" 
          font-family="monospace" font-size="12" 
          text-anchor="middle" fill="#333333">Task F</text>
    <rect x="240" y="200" width="80" height="20" 
          rx="4" ry="4" 
          fill="#f0f0f0" stroke="#333333" stroke-width="1"/>
    <text x="280" y="214" 
          font-family="monospace" font-size="12" 
          text-anchor="middle" fill="#333333">Output</text>
    <circle cx="225" cy="150" r="4" 
            fill="#ff6600" stroke="#cc4400" stroke-width="1"/>
  </g>

</svg>
